<?xml version="1.0" encoding="utf-8"?>
<!-- Generator: Adobe Illustrator 18.0.0, SVG Export Plug-In . SVG Version: 6.00 Build 0)  -->
<!DOCTYPE svg PUBLIC "-//W3C//DTD SVG 1.1//EN" "http://www.w3.org/Graphics/SVG/1.1/DTD/svg11.dtd">
<svg version="1.1" id="Layer_1" xmlns="http://www.w3.org/2000/svg" xmlns:xlink="http://www.w3.org/1999/xlink" x="0px" y="0px"
	 viewBox="-8.8 -8.8 49.7 49.7" enable-background="new -8.8 -8.8 49.7 49.7" xml:space="preserve">
<g>
	<path d="M20.8,10.4V9.9c0-0.4-0.3-0.7-0.7-0.7H19c0.1-0.2,0.2-0.4,0.2-0.7c0-0.8-0.7-1.5-1.5-1.5c-0.8,0-1.5,0.7-1.5,1.5
		c0,0.2,0.1,0.5,0.2,0.7h-1.5c-0.4,0-0.7,0.3-0.7,0.7v0.5h-1.9c-0.7,0-1.2,0.5-1.2,1.2v12.2c0,0.7,0.5,1.2,1.2,1.2h10.4
		c0.7,0,1.2-0.5,1.2-1.2V11.6c0-0.7-0.5-1.2-1.2-1.2H20.8z M16.7,8.5c0-0.5,0.4-0.9,0.9-0.9c0.5,0,0.9,0.4,0.9,0.9
		c0,0.3-0.1,0.5-0.3,0.7H17C16.9,9,16.7,8.8,16.7,8.5z M22.6,23.2c0,0.3-0.3,0.6-0.6,0.6h-9.1c-0.3,0-0.6-0.3-0.6-0.6V12.2
		c0-0.3,0.3-0.6,0.6-0.6h1.2c0,0.3,0.3,0.6,0.6,0.6h5.5c0.3,0,0.6-0.3,0.6-0.6H22c0.3,0,0.6,0.3,0.6,0.6V23.2z"/>
	<path d="M17,18l-0.7-0.7c-0.1-0.1-0.2-0.1-0.3-0.1c-0.1,0-0.2,0-0.3,0.1l-0.2,0.2c-0.2,0.2-0.2,0.5,0,0.6l1.3,1.3
		c0.1,0.1,0.2,0.1,0.3,0.1c0.1,0,0.2-0.1,0.3-0.1l2.3-2.4c0.2-0.2,0.2-0.5,0-0.6l-0.2-0.2C19.2,16.1,19.1,16,19,16s-0.2,0.1-0.3,0.1
		L17,18z"/>
	<path d="M17.4,13.1c-2.5,0-4.4,2-4.4,4.4c0,2.5,2,4.4,4.4,4.4c2.4,0,4.4-2,4.4-4.4C21.9,15.1,19.9,13.1,17.4,13.1z M17.4,20.8
		c-1.8,0-3.2-1.5-3.2-3.2c0-1.8,1.4-3.2,3.2-3.2c1.8,0,3.2,1.5,3.2,3.2S19.2,20.8,17.4,20.8z"/>
</g>
</svg>
