<?xml version="1.0" encoding="utf-8"?>
<!-- Generator: Adobe Illustrator 18.1.1, SVG Export Plug-In . SVG Version: 6.00 Build 0)  -->
<!DOCTYPE svg PUBLIC "-//W3C//DTD SVG 1.1 Tiny//EN" "http://www.w3.org/Graphics/SVG/1.1/DTD/svg11-tiny.dtd">
<svg version="1.1" baseProfile="tiny" id="Capa_1" xmlns="http://www.w3.org/2000/svg" xmlns:xlink="http://www.w3.org/1999/xlink"
	 x="0px" y="0px" viewBox="130 7 560 560" xml:space="preserve">
<g>
	<g>
		<path fill="#010002" d="M610,237.4V7H130v480h230.4c32.3,48.2,87.2,80,149.6,80c99.4,0,180-80.6,180-180
			C690,324.6,658.2,269.6,610,237.4z M360.3,287c-8.2,12.3-14.9,25.8-19.9,40H210v40h121.2c-0.7,6.6-1.2,13.2-1.2,20
			c0,21.1,3.8,41.2,10.5,60H170V47h400v170.5c-18.8-6.7-38.9-10.5-60-10.5c-42.9,0-82.1,15-113,40H210v40H360.3z M510,524.7
			C434,524.5,372.5,463,372.3,387c0.2-76,61.7-137.5,137.7-137.7c76,0.2,137.5,61.7,137.7,137.7C647.5,463,586,524.5,510,524.7z"/>
		<polygon fill="#010002" points="530,167 210,167 210,207 510,207 530,207 		"/>
		<polygon fill="#010002" points="570,307 490,387 450,347 410,387 490,467 610,347 		"/>
	</g>
</g>
</svg>
