<?xml version="1.0" encoding="utf-8"?>
<!-- Generator: Adobe Illustrator 18.1.1, SVG Export Plug-In . SVG Version: 6.00 Build 0)  -->
<!DOCTYPE svg PUBLIC "-//W3C//DTD SVG 1.1 Tiny//EN" "http://www.w3.org/Graphics/SVG/1.1/DTD/svg11-tiny.dtd">
<svg version="1.1" baseProfile="tiny" id="Capa_1" xmlns="http://www.w3.org/2000/svg" xmlns:xlink="http://www.w3.org/1999/xlink"
	 x="0px" y="0px" viewBox="-183 1.1 592.8 556.9" xml:space="preserve">
<g>
	<path d="M406.2,339.4L301.4,537.7c-5.1,9.9-19.7,20.3-30.9,20.3l-420.1,0.1c-8.9,0-17.4-3.5-23.7-9.8c-6.3-6.3-9.8-14.8-9.8-23.7
		l0.1-326.2c0-18.4,15-33.4,33.4-33.4l30.7,0v28.5h-20.5c-4,0-7.9,1.6-10.7,4.4c-2.8,2.8-4.4,6.7-4.4,10.7l0,305.8
		c0,8.4,6.8,15.2,15.2,15.2h21L-19,328.7c5.6-11.2,16.2-20.3,27.4-20.3h243.1l0.1-80.8c15.9,1.5,28.4,14.6,28.4,30.9v49.9h111.5
		C404.7,308.6,415.8,321.6,406.2,339.4z M-99.4,428.5c-0.9-100,0-399.9,0-399.9c0-15.1,12.3-27.4,27.4-27.4h219.6
		c3.5,0,6.9,1.5,9.3,4.1l71,77.1c2.1,2.3,3.3,5.4,3.3,8.5v199.8h-23V108.1c0-3.2-2.6-5.7-5.7-5.7h-54.3c-6.4,0-11.5-5.2-11.5-11.5
		v-61c0-3.2-2.6-5.7-5.7-5.7H-72c-2.4,0-4.4,2-4.4,4.4v374.7L-94,439C-94,439-99.4,438.6-99.4,428.5z M159.6,79.4h34.2l-34.2-37.2
		L159.6,79.4L159.6,79.4z M172.1,125.9H-40.2c-7.8,0-14.2,6.4-14.2,14.2c0,7.8,6.4,14.2,14.2,14.2h212.3c7.8,0,14.2-6.4,14.2-14.2
		C186.2,132.2,179.9,125.9,172.1,125.9z M186.2,222.6c0-7.8-6.4-14.2-14.2-14.2H-40.2c-7.8,0-14.2,6.4-14.2,14.2
		c0,7.8,6.4,14.2,14.2,14.2h212.3C179.9,236.7,186.2,230.4,186.2,222.6z M-54.4,305.7c0,7.8,6.4,14.2,14.2,14.2h5.1
		c9-25,31.2-28.3,31.2-28.3h-36.3C-48,291.5-54.4,297.8-54.4,305.7z"/>
</g>
</svg>
