<?xml version="1.0" encoding="utf-8"?>
<!-- Generator: Adobe Illustrator 18.1.1, SVG Export Plug-In . SVG Version: 6.00 Build 0)  -->
<!DOCTYPE svg PUBLIC "-//W3C//DTD SVG 1.1 Tiny//EN" "http://www.w3.org/Graphics/SVG/1.1/DTD/svg11-tiny.dtd">
<svg version="1.1" baseProfile="tiny" id="Layer_1" xmlns="http://www.w3.org/2000/svg" xmlns:xlink="http://www.w3.org/1999/xlink"
	 x="0px" y="0px" viewBox="0 0 429.5 81.3" xml:space="preserve">
<g>
	<path fill="#FFFFFF" d="M31.1,37.8v29.5C15.4,65.8,3,53.4,1.5,37.8H31.1z"/>
	<path fill="#FFFFFF" d="M31.1,31.4H1.5C3,15.8,15.4,3.3,31.1,1.8V31.4z"/>
	<path fill="#FFFFFF" d="M37.4,37.8H67c-1.5,15.6-13.9,28-29.5,29.5V37.8z"/>
</g>
<g>
	<path fill="#FFFFFF" d="M80.4,20.7c-0.5,0-0.8-0.3-0.8-0.9V3.6c0-0.4,0.1-0.6,0.4-0.9s0.6-0.3,1-0.3h0.5c0.5,0,0.8,0.1,1,0.4
		c0.2,0.2,0.4,0.6,0.6,1.1l4.7,10.6l4.8-10.6C92.8,3.3,93,3,93.2,2.7c0.2-0.2,0.5-0.4,1-0.4h0.4c0.4,0,0.8,0.1,1,0.3
		s0.4,0.5,0.4,0.9v16.3c0,0.6-0.3,0.9-0.8,0.9H95c-0.5,0-0.8-0.3-0.8-0.9V4.6l-4.7,10.3c-0.2,0.4-0.4,0.7-0.6,0.9
		c-0.2,0.2-0.6,0.3-1,0.3c-0.5,0-0.8-0.1-1.1-0.3c-0.2-0.2-0.4-0.5-0.6-0.9L81.5,4.6v15.3c0,0.6-0.3,0.9-0.8,0.9H80.4z"/>
	<path fill="#FFFFFF" d="M108.8,12.2c0-1.2-0.3-2.1-1-2.7c-0.6-0.6-1.6-0.9-2.8-0.9c-1.1,0-2,0.2-2.7,0.7c-0.7,0.5-1.2,1.1-1.6,1.8
		c-0.2,0-0.4-0.1-0.5-0.2c-0.1-0.1-0.2-0.2-0.4-0.3s-0.2-0.3-0.2-0.6s0.1-0.5,0.4-0.9c0.2-0.3,0.6-0.7,1-1s1-0.6,1.7-0.8
		c0.7-0.2,1.5-0.3,2.3-0.3c1.7,0,3,0.5,4,1.4c1,0.9,1.4,2.2,1.4,3.8v8.4c0,0-0.1,0.1-0.2,0.1c-0.1,0-0.3,0.1-0.4,0.1
		c-0.3,0-0.6-0.1-0.8-0.3c-0.2-0.2-0.3-0.7-0.3-1.4v-0.5c-0.5,0.8-1.2,1.4-2.1,1.8c-0.9,0.4-1.8,0.6-2.9,0.6c-1.5,0-2.6-0.3-3.4-1
		c-0.8-0.7-1.2-1.6-1.2-2.7c0-1.6,0.8-2.7,2.3-3.4c1.5-0.7,3.9-1.1,7-1.1h0.3V12.2z M104,19.4c0.7,0,1.3-0.1,1.9-0.3
		c0.6-0.2,1.1-0.5,1.5-0.9c0.4-0.4,0.8-0.8,1-1.3s0.4-1,0.4-1.6v-1.2l-0.8,0c-2.3,0.1-4,0.4-5.2,0.8c-1.2,0.4-1.7,1.2-1.7,2.3
		c0,0.7,0.3,1.2,0.8,1.6C102.4,19.2,103.1,19.4,104,19.4z"/>
	<path fill="#FFFFFF" d="M116,9.7c0.6-1.9,1.8-2.8,3.5-2.8c0.6,0,1.1,0.1,1.4,0.4s0.5,0.6,0.5,1c0,0.3-0.1,0.6-0.2,0.8
		S121,9.3,121,9.3c-0.2-0.2-0.4-0.3-0.7-0.4c-0.3-0.1-0.6-0.2-0.9-0.2c-0.6,0-1.1,0.1-1.5,0.4c-0.4,0.3-0.8,0.7-1,1.2
		c-0.3,0.5-0.5,1.1-0.6,1.9c-0.1,0.7-0.2,1.5-0.2,2.4v5.2c0,0.3-0.1,0.6-0.2,0.7c-0.2,0.1-0.4,0.2-0.6,0.2h-0.2
		c-0.2,0-0.4-0.1-0.6-0.2c-0.2-0.1-0.2-0.4-0.2-0.7V7.4c0,0,0.1-0.1,0.2-0.1c0.1,0,0.3-0.1,0.4-0.1c0.3,0,0.6,0.1,0.8,0.3
		c0.2,0.2,0.4,0.7,0.4,1.4V9.7z"/>
	<path fill="#FFFFFF" d="M125.5,19.8c0,0.3-0.1,0.6-0.2,0.7c-0.2,0.1-0.4,0.2-0.6,0.2h-0.2c-0.2,0-0.4-0.1-0.6-0.2
		c-0.2-0.1-0.2-0.4-0.2-0.7V1.7c0,0,0.1-0.1,0.2-0.1c0.1,0,0.3-0.1,0.4-0.1c0.3,0,0.6,0.1,0.9,0.3c0.2,0.2,0.4,0.7,0.4,1.4v10.1
		l5.4-5.5c0.3-0.3,0.5-0.4,0.7-0.6c0.2-0.1,0.4-0.2,0.6-0.2s0.3,0,0.5,0.1s0.2,0.2,0.3,0.3s0.1,0.2,0.1,0.3c0,0.1,0,0.1,0,0.2
		l-5.5,5.5l6.4,6.2c0,0,0,0.1,0,0.2c0,0.1-0.1,0.2-0.2,0.3c-0.1,0.1-0.2,0.2-0.3,0.3s-0.3,0.1-0.5,0.1c-0.2,0-0.3-0.1-0.5-0.2
		s-0.4-0.3-0.7-0.5l-6.2-6.2V19.8z"/>
	<path fill="#FFFFFF" d="M137,14.4c0,0.7,0.2,1.4,0.4,1.9c0.3,0.6,0.6,1.1,1.1,1.5c0.4,0.4,1,0.8,1.6,1s1.3,0.4,2,0.4
		c0.7,0,1.2-0.1,1.7-0.2c0.5-0.1,0.9-0.3,1.3-0.5c0.4-0.2,0.7-0.5,0.9-0.8c0.3-0.3,0.5-0.6,0.7-0.9c0,0,0.1,0,0.2,0
		c0.1,0,0.2,0.1,0.4,0.2c0.1,0.1,0.2,0.2,0.4,0.3s0.2,0.3,0.2,0.5c0,0.2-0.1,0.5-0.4,0.9c-0.3,0.3-0.6,0.7-1.1,1
		c-0.5,0.3-1.1,0.6-1.8,0.8s-1.5,0.3-2.4,0.3c-1,0-1.9-0.2-2.8-0.5c-0.8-0.3-1.6-0.8-2.2-1.4c-0.6-0.6-1.1-1.3-1.4-2.2
		c-0.3-0.8-0.5-1.8-0.5-2.8c0-1,0.2-1.9,0.5-2.8c0.3-0.9,0.8-1.6,1.4-2.2c0.6-0.6,1.3-1.1,2.1-1.5s1.7-0.5,2.7-0.5
		c0.9,0,1.8,0.2,2.5,0.5s1.4,0.8,2,1.4c0.5,0.6,1,1.3,1.3,2.1c0.3,0.8,0.4,1.8,0.4,2.8v0.2c0,0.3-0.1,0.4-0.2,0.5
		c-0.1,0.1-0.3,0.1-0.6,0.1H137z M146.2,12.9c-0.1-1.3-0.5-2.4-1.3-3.2c-0.8-0.8-1.8-1.2-3-1.2c-0.6,0-1.2,0.1-1.8,0.3
		c-0.5,0.2-1,0.5-1.4,0.9c-0.4,0.4-0.8,0.8-1,1.4c-0.3,0.5-0.5,1.1-0.6,1.8H146.2z"/>
	<path fill="#FFFFFF" d="M150.6,8.9c-0.3,0-0.6-0.1-0.7-0.2c-0.1-0.1-0.2-0.3-0.2-0.6V8c0-0.2,0.1-0.4,0.2-0.6
		c0.1-0.1,0.4-0.2,0.7-0.2h1.2V5c0-0.3,0.1-0.6,0.2-0.7c0.1-0.1,0.3-0.2,0.6-0.2h0.2c0.2,0,0.4,0.1,0.6,0.2c0.1,0.1,0.2,0.4,0.2,0.7
		v2.3h3.6c0.3,0,0.6,0.1,0.7,0.2C158,7.6,158,7.8,158,8v0.2c0,0.2-0.1,0.4-0.2,0.6c-0.1,0.1-0.3,0.2-0.7,0.2h-3.6v7.6
		c0,1,0.1,1.7,0.4,2.2c0.3,0.5,0.8,0.7,1.6,0.7c0.5,0,0.9-0.1,1.2-0.3c0.3-0.2,0.6-0.4,0.9-0.7c0,0,0.1,0,0.3,0.2
		c0.2,0.1,0.3,0.4,0.3,0.7c0,0.4-0.2,0.7-0.7,1.1c-0.5,0.4-1.1,0.5-2,0.5c-1.3,0-2.3-0.4-2.8-1.1c-0.6-0.7-0.9-1.8-0.9-3.2V8.9
		H150.6z"/>
	<path fill="#FFFFFF" d="M166.5,20.9c-1,0-1.9-0.1-2.7-0.4c-0.8-0.2-1.5-0.5-2.1-0.9s-1-0.8-1.3-1.2c-0.3-0.4-0.5-0.8-0.5-1.1
		c0-0.2,0.1-0.4,0.2-0.5c0.1-0.1,0.2-0.3,0.4-0.4c0.1-0.1,0.3-0.2,0.4-0.2c0.1,0,0.2,0,0.2,0c0.5,0.8,1.2,1.6,2.1,2.2
		c0.9,0.6,2,0.9,3.4,0.9c1.4,0,2.5-0.3,3.3-0.9c0.8-0.6,1.2-1.4,1.2-2.5c0-0.6-0.1-1.1-0.4-1.5c-0.3-0.4-0.6-0.7-1.1-1
		c-0.5-0.3-1-0.5-1.6-0.7c-0.6-0.2-1.2-0.3-1.9-0.5c-0.7-0.2-1.4-0.4-2-0.6c-0.7-0.2-1.3-0.5-1.8-0.9c-0.5-0.4-1-0.9-1.3-1.5
		c-0.3-0.6-0.5-1.3-0.5-2.2c0-0.7,0.2-1.4,0.5-2c0.3-0.6,0.7-1.1,1.3-1.6c0.5-0.4,1.2-0.8,1.9-1.1c0.7-0.3,1.5-0.4,2.4-0.4
		c0.9,0,1.8,0.1,2.5,0.3c0.7,0.2,1.4,0.5,1.9,0.8c0.5,0.3,0.9,0.7,1.2,1c0.3,0.4,0.4,0.7,0.4,1c0,0.2-0.1,0.4-0.2,0.5
		c-0.1,0.1-0.2,0.3-0.4,0.4c-0.1,0.1-0.3,0.2-0.4,0.2c-0.1,0-0.2,0-0.2,0c-0.4-0.7-1.1-1.4-1.9-1.9s-1.8-0.8-2.9-0.8
		c-1.3,0-2.3,0.3-3.1,0.9c-0.8,0.6-1.2,1.4-1.2,2.4c0,0.6,0.1,1.1,0.3,1.4c0.2,0.4,0.5,0.7,1,0.9s0.9,0.4,1.5,0.6
		c0.6,0.2,1.2,0.3,1.9,0.5c0.7,0.2,1.4,0.4,2.2,0.6c0.7,0.2,1.3,0.6,1.9,1c0.6,0.4,1,0.9,1.4,1.5c0.3,0.6,0.5,1.4,0.5,2.3
		c0,0.8-0.1,1.5-0.4,2.1s-0.7,1.2-1.3,1.6c-0.5,0.4-1.2,0.8-2,1C168.3,20.8,167.4,20.9,166.5,20.9z"/>
	<path fill="#FFFFFF" d="M177.6,9.4c0.5-0.7,1.1-1.3,1.8-1.8c0.7-0.5,1.6-0.7,2.7-0.7c0.9,0,1.6,0.1,2.3,0.4
		c0.7,0.3,1.2,0.7,1.6,1.2c0.4,0.5,0.8,1.1,1,1.9c0.2,0.7,0.3,1.5,0.3,2.4v7c0,0.3-0.1,0.6-0.2,0.7c-0.2,0.1-0.4,0.2-0.6,0.2h-0.2
		c-0.2,0-0.4-0.1-0.6-0.2c-0.2-0.1-0.2-0.4-0.2-0.7v-6.9c0-1.3-0.3-2.4-0.9-3.1C184,9,183.1,8.6,182,8.6c-1.3,0-2.4,0.4-3.2,1.2
		c-0.8,0.8-1.2,1.9-1.2,3.3v6.6c0,0.3-0.1,0.6-0.2,0.7c-0.2,0.1-0.4,0.2-0.6,0.2h-0.2c-0.2,0-0.4-0.1-0.6-0.2
		c-0.2-0.1-0.2-0.4-0.2-0.7V1.7c0,0,0.1-0.1,0.2-0.1c0.1,0,0.3-0.1,0.4-0.1c0.3,0,0.6,0.1,0.9,0.3c0.2,0.2,0.4,0.7,0.4,1.4V9.4z"/>
	<path fill="#FFFFFF" d="M199.8,12.2c0-1.2-0.3-2.1-1-2.7c-0.6-0.6-1.6-0.9-2.8-0.9c-1.1,0-2,0.2-2.7,0.7s-1.2,1.1-1.6,1.8
		c-0.2,0-0.4-0.1-0.5-0.2c-0.1-0.1-0.2-0.2-0.3-0.3s-0.2-0.3-0.2-0.6s0.1-0.5,0.3-0.9c0.2-0.3,0.6-0.7,1-1s1-0.6,1.7-0.8
		c0.7-0.2,1.5-0.3,2.3-0.3c1.7,0,3,0.5,4,1.4c1,0.9,1.4,2.2,1.4,3.8v8.4c0,0-0.1,0.1-0.2,0.1c-0.1,0-0.3,0.1-0.4,0.1
		c-0.3,0-0.6-0.1-0.8-0.3c-0.2-0.2-0.3-0.7-0.3-1.4v-0.5c-0.5,0.8-1.2,1.4-2.1,1.8c-0.9,0.4-1.8,0.6-2.9,0.6c-1.5,0-2.6-0.3-3.4-1
		c-0.8-0.7-1.2-1.6-1.2-2.7c0-1.6,0.8-2.7,2.3-3.4c1.5-0.7,3.9-1.1,7-1.1h0.3V12.2z M195,19.4c0.7,0,1.3-0.1,1.9-0.3
		c0.6-0.2,1.1-0.5,1.5-0.9c0.4-0.4,0.8-0.8,1-1.3s0.4-1,0.4-1.6v-1.2l-0.8,0c-2.3,0.1-4,0.4-5.2,0.8c-1.2,0.4-1.7,1.2-1.7,2.3
		c0,0.7,0.3,1.2,0.8,1.6C193.4,19.2,194.1,19.4,195,19.4z"/>
	<path fill="#FFFFFF" d="M207,9.7c0.6-1.9,1.8-2.8,3.5-2.8c0.6,0,1.1,0.1,1.4,0.4c0.3,0.2,0.5,0.6,0.5,1c0,0.3-0.1,0.6-0.2,0.8
		S212,9.3,212,9.3c-0.2-0.2-0.4-0.3-0.7-0.4c-0.3-0.1-0.6-0.2-0.9-0.2c-0.6,0-1.1,0.1-1.5,0.4c-0.4,0.3-0.8,0.7-1,1.2
		c-0.3,0.5-0.5,1.1-0.6,1.9c-0.1,0.7-0.2,1.5-0.2,2.4v5.2c0,0.3-0.1,0.6-0.2,0.7c-0.2,0.1-0.4,0.2-0.6,0.2H206
		c-0.2,0-0.4-0.1-0.6-0.2c-0.2-0.1-0.2-0.4-0.2-0.7V7.4c0,0,0.1-0.1,0.2-0.1c0.1,0,0.3-0.1,0.4-0.1c0.3,0,0.6,0.1,0.8,0.3
		c0.2,0.2,0.4,0.7,0.4,1.4V9.7z"/>
	<path fill="#FFFFFF" d="M215.6,14.4c0,0.7,0.2,1.4,0.4,1.9c0.3,0.6,0.6,1.1,1.1,1.5c0.4,0.4,1,0.8,1.6,1s1.3,0.4,2,0.4
		c0.7,0,1.2-0.1,1.7-0.2c0.5-0.1,0.9-0.3,1.3-0.5c0.4-0.2,0.7-0.5,0.9-0.8c0.3-0.3,0.5-0.6,0.7-0.9c0,0,0.1,0,0.2,0
		c0.1,0,0.2,0.1,0.4,0.2c0.1,0.1,0.2,0.2,0.4,0.3s0.2,0.3,0.2,0.5c0,0.2-0.1,0.5-0.4,0.9c-0.3,0.3-0.6,0.7-1.1,1
		c-0.5,0.3-1.1,0.6-1.8,0.8s-1.5,0.3-2.4,0.3c-1,0-1.9-0.2-2.8-0.5c-0.8-0.3-1.6-0.8-2.2-1.4c-0.6-0.6-1.1-1.3-1.4-2.2
		c-0.3-0.8-0.5-1.8-0.5-2.8c0-1,0.2-1.9,0.5-2.8c0.3-0.9,0.8-1.6,1.4-2.2c0.6-0.6,1.3-1.1,2.1-1.5s1.7-0.5,2.7-0.5
		c0.9,0,1.8,0.2,2.5,0.5s1.4,0.8,2,1.4c0.5,0.6,1,1.3,1.3,2.1c0.3,0.8,0.4,1.8,0.4,2.8v0.2c0,0.3-0.1,0.4-0.2,0.5
		c-0.1,0.1-0.3,0.1-0.6,0.1H215.6z M224.8,12.9c-0.1-1.3-0.5-2.4-1.3-3.2c-0.8-0.8-1.8-1.2-3-1.2c-0.6,0-1.2,0.1-1.8,0.3
		c-0.5,0.2-1,0.5-1.4,0.9c-0.4,0.4-0.8,0.8-1,1.4c-0.3,0.5-0.5,1.1-0.6,1.8H224.8z"/>
</g>
<g>
	<path fill="#FFFFFF" d="M81.9,67.1c-0.6,0-1.1-0.2-1.5-0.6c-0.4-0.4-0.6-0.9-0.6-1.5V33.5c0-0.6,0.2-1.1,0.6-1.5
		c0.4-0.4,0.9-0.6,1.5-0.6h8.4c3.1,0,5.8,0.4,8.2,1.2c2.4,0.8,4.4,2,6.1,3.5c1.7,1.5,3,3.4,3.8,5.6c0.9,2.2,1.3,4.7,1.3,7.5
		c0,2.8-0.5,5.3-1.4,7.6c-0.9,2.2-2.2,4.1-3.9,5.6c-1.7,1.5-3.8,2.7-6.2,3.5c-2.5,0.8-5.2,1.2-8.3,1.2H81.9z M90.3,63.8
		c5,0,8.9-1.3,11.6-3.8c2.7-2.5,4.1-6.1,4.1-10.8c0-2.3-0.4-4.3-1.1-6.1c-0.7-1.8-1.7-3.3-3.1-4.6c-1.3-1.3-3-2.2-4.9-2.9
		c-1.9-0.7-4.1-1-6.6-1h-6.8v29.2H90.3z"/>
	<path fill="#FFFFFF" d="M118.2,55c0.1,1.4,0.4,2.7,0.9,3.8c0.5,1.2,1.2,2.2,2.1,3c0.9,0.8,1.9,1.5,3.1,2c1.2,0.5,2.5,0.7,3.9,0.7
		c1.3,0,2.4-0.1,3.4-0.4c1-0.3,1.8-0.6,2.5-1c0.7-0.4,1.3-0.9,1.8-1.5c0.5-0.6,0.9-1.2,1.4-1.8c0,0,0.2,0,0.4,0
		c0.2,0,0.5,0.1,0.7,0.3c0.3,0.2,0.5,0.4,0.7,0.7c0.2,0.3,0.3,0.6,0.3,1.1c0,0.4-0.2,1-0.7,1.7s-1.2,1.3-2.2,1.9
		c-0.9,0.6-2.1,1.2-3.5,1.6s-3,0.7-4.7,0.7c-2,0-3.8-0.3-5.5-1c-1.7-0.7-3.1-1.6-4.3-2.8c-1.2-1.2-2.1-2.7-2.8-4.3
		c-0.7-1.7-1-3.5-1-5.5c0-2,0.3-3.8,1-5.5c0.7-1.7,1.6-3.2,2.8-4.4c1.2-1.2,2.6-2.2,4.2-2.9c1.6-0.7,3.4-1,5.3-1
		c1.8,0,3.5,0.3,5,0.9c1.5,0.6,2.8,1.5,3.9,2.7c1.1,1.2,1.9,2.6,2.5,4.2c0.6,1.6,0.9,3.4,0.9,5.4v0.3c0,0.5-0.1,0.8-0.3,1
		c-0.2,0.1-0.6,0.2-1.2,0.2H118.2z M136.2,51.9c-0.2-2.6-1-4.7-2.5-6.2c-1.5-1.5-3.5-2.3-5.9-2.3c-1.2,0-2.4,0.2-3.5,0.6
		c-1.1,0.4-2,1-2.8,1.8c-0.8,0.8-1.5,1.7-2.1,2.7c-0.6,1-0.9,2.2-1.1,3.4H136.2z"/>
	<path fill="#FFFFFF" d="M157.3,67.8c-1.9,0-3.7-0.4-5.4-1c-1.6-0.7-3.1-1.7-4.3-2.9c-1.2-1.2-2.2-2.7-2.8-4.4c-0.7-1.7-1-3.5-1-5.5
		c0-2,0.3-3.8,1-5.5c0.7-1.7,1.6-3.1,2.8-4.4c1.2-1.2,2.6-2.2,4.3-2.9c1.6-0.7,3.4-1,5.4-1c1.9,0,3.6,0.3,5,0.8
		c1.4,0.5,2.6,1.2,3.5,2c0.9,0.8,1.6,1.6,2.1,2.4c0.5,0.8,0.7,1.5,0.7,2.1c0,0.4-0.1,0.7-0.4,1c-0.2,0.2-0.5,0.4-0.8,0.6
		c-0.3,0.1-0.6,0.2-0.8,0.2c-0.2,0-0.4,0-0.4-0.1c-0.3-0.8-0.8-1.6-1.3-2.3c-0.5-0.7-1.1-1.3-1.8-1.8c-0.7-0.5-1.6-0.9-2.5-1.2
		c-1-0.3-2.1-0.4-3.3-0.4c-1.4,0-2.7,0.3-3.9,0.8c-1.2,0.5-2.3,1.2-3.1,2.2c-0.9,0.9-1.6,2-2.1,3.3c-0.5,1.3-0.7,2.7-0.7,4.2
		s0.2,2.9,0.7,4.2c0.5,1.3,1.2,2.4,2.1,3.3c0.9,1,1.9,1.7,3.1,2.2c1.2,0.5,2.5,0.8,3.9,0.8c1.3,0,2.4-0.1,3.3-0.4
		c1-0.3,1.8-0.7,2.5-1.2c0.7-0.5,1.3-1.1,1.8-1.8c0.5-0.7,0.9-1.5,1.3-2.3c0,0,0.2,0,0.4,0c0.2,0,0.5,0.1,0.8,0.2
		c0.3,0.1,0.6,0.3,0.8,0.6c0.2,0.2,0.4,0.6,0.4,1c0,0.6-0.2,1.3-0.7,2.1c-0.5,0.8-1.2,1.6-2.1,2.4c-0.9,0.8-2.1,1.4-3.5,2
		C160.9,67.5,159.2,67.8,157.3,67.8z"/>
	<path fill="#FFFFFF" d="M176.2,34.3c-1.5,0-2.3-0.8-2.3-2.4c0-1.6,0.8-2.4,2.4-2.4c1.5,0,2.3,0.8,2.3,2.4
		C178.6,33.5,177.8,34.3,176.2,34.3z M176,67.3c-0.5,0-0.9-0.1-1.2-0.4c-0.3-0.2-0.4-0.7-0.4-1.4V42.3c0-0.7,0.1-1.1,0.4-1.4
		c0.3-0.2,0.7-0.4,1.2-0.4h0.4c0.5,0,0.9,0.1,1.2,0.4c0.3,0.2,0.4,0.7,0.4,1.4v23.3c0,0.7-0.1,1.1-0.4,1.4c-0.3,0.2-0.7,0.4-1.2,0.4
		H176z"/>
	<path fill="#FFFFFF" d="M194.5,67.8c-1.8,0-3.3-0.2-4.7-0.6c-1.3-0.4-2.5-0.8-3.4-1.4c-0.9-0.6-1.6-1.1-2.1-1.7
		c-0.5-0.6-0.7-1.2-0.7-1.7c0-0.4,0.1-0.7,0.3-0.9c0.2-0.3,0.4-0.5,0.6-0.6c0.2-0.2,0.5-0.3,0.7-0.3c0.2-0.1,0.3-0.1,0.4,0
		c0.9,1.2,2,2.2,3.5,3c1.5,0.8,3.3,1.2,5.5,1.2s3.9-0.4,5-1.2c1.2-0.8,1.7-1.9,1.7-3.2c0-0.8-0.2-1.4-0.5-1.9
		c-0.3-0.5-0.8-0.9-1.5-1.3c-0.7-0.3-1.5-0.6-2.4-0.9c-1-0.2-2.1-0.5-3.3-0.7c-1-0.2-2.1-0.5-3.2-0.8c-1.1-0.3-2.1-0.7-3-1.2
		c-0.9-0.5-1.6-1.2-2.2-2.1c-0.6-0.8-0.9-1.9-0.9-3.3c0-1.2,0.2-2.3,0.7-3.2c0.5-1,1.2-1.8,2-2.5c0.9-0.7,1.9-1.2,3.2-1.6
		c1.2-0.4,2.6-0.6,4.1-0.6c1.6,0,3,0.2,4.2,0.5c1.2,0.3,2.2,0.8,3.1,1.3c0.8,0.5,1.4,1.1,1.8,1.7c0.4,0.6,0.6,1.1,0.6,1.6
		c0,0.3-0.1,0.6-0.3,0.9c-0.2,0.3-0.4,0.5-0.7,0.6c-0.2,0.2-0.5,0.3-0.7,0.3c-0.2,0.1-0.3,0.1-0.4,0c-0.7-1.1-1.8-2.1-3.1-2.8
		c-1.3-0.7-2.9-1.1-4.7-1.1c-2.2,0-3.8,0.4-4.9,1.2c-1.1,0.8-1.7,1.9-1.7,3.2c0,1.4,0.6,2.4,1.8,3c1.2,0.6,3.1,1.1,5.5,1.7
		c1.1,0.2,2.2,0.5,3.3,0.8c1.1,0.3,2.2,0.7,3.1,1.3c0.9,0.5,1.7,1.2,2.3,2.1c0.6,0.9,0.9,2,0.9,3.3c0,2.4-0.9,4.4-2.8,5.8
		C200.3,67,197.7,67.8,194.5,67.8z"/>
	<path fill="#FFFFFF" d="M212.7,34.3c-1.5,0-2.3-0.8-2.3-2.4c0-1.6,0.8-2.4,2.4-2.4c1.5,0,2.3,0.8,2.3,2.4
		C215.2,33.5,214.4,34.3,212.7,34.3z M212.6,67.3c-0.5,0-0.9-0.1-1.2-0.4c-0.3-0.2-0.4-0.7-0.4-1.4V42.3c0-0.7,0.1-1.1,0.4-1.4
		c0.3-0.2,0.7-0.4,1.2-0.4h0.4c0.5,0,0.9,0.1,1.2,0.4c0.3,0.2,0.4,0.7,0.4,1.4v23.3c0,0.7-0.1,1.1-0.4,1.4c-0.3,0.2-0.7,0.4-1.2,0.4
		H212.6z"/>
	<path fill="#FFFFFF" d="M234,67.8c-2,0-3.8-0.4-5.5-1c-1.7-0.7-3.1-1.7-4.3-2.9c-1.2-1.2-2.1-2.7-2.8-4.4c-0.7-1.7-1-3.5-1-5.5
		c0-2,0.3-3.8,1-5.5c0.7-1.7,1.6-3.1,2.8-4.4c1.2-1.2,2.6-2.2,4.3-2.9c1.7-0.7,3.5-1,5.5-1c1.9,0,3.7,0.4,5.4,1
		c1.7,0.7,3.1,1.7,4.3,2.9c1.2,1.2,2.1,2.7,2.8,4.4c0.7,1.7,1,3.5,1,5.5c0,2-0.3,3.8-1,5.5c-0.7,1.7-1.6,3.1-2.8,4.4
		c-1.2,1.2-2.6,2.2-4.3,2.9C237.8,67.4,236,67.8,234,67.8z M234,64.6c1.4,0,2.7-0.3,3.9-0.8c1.2-0.5,2.3-1.3,3.1-2.2
		c0.9-0.9,1.6-2,2.1-3.3c0.5-1.3,0.7-2.7,0.7-4.2c0-1.5-0.2-3-0.7-4.3c-0.5-1.3-1.2-2.4-2.1-3.4c-0.9-1-1.9-1.7-3.1-2.2
		c-1.2-0.5-2.5-0.8-3.9-0.8s-2.8,0.3-4,0.8c-1.2,0.5-2.3,1.3-3.1,2.2c-0.9,0.9-1.6,2-2.1,3.3c-0.5,1.3-0.7,2.7-0.7,4.2
		c0,1.5,0.2,3,0.7,4.3c0.5,1.3,1.2,2.4,2.1,3.4c0.9,1,1.9,1.7,3.1,2.2C231.3,64.3,232.6,64.6,234,64.6z"/>
	<path fill="#FFFFFF" d="M256.8,44.9c0.9-1.4,2.1-2.5,3.6-3.4c1.5-0.9,3.3-1.3,5.3-1.3c1.7,0,3.2,0.3,4.5,0.8
		c1.3,0.6,2.4,1.3,3.2,2.3c0.9,1,1.5,2.2,2,3.7c0.4,1.4,0.7,3,0.7,4.7v13.8c0,0.7-0.2,1.1-0.4,1.4c-0.3,0.2-0.7,0.4-1.2,0.4h-0.4
		c-0.5,0-0.9-0.1-1.2-0.4c-0.3-0.2-0.4-0.7-0.4-1.4V52c0-2.6-0.6-4.7-1.8-6.2c-1.2-1.5-2.9-2.2-5.2-2.2c-2,0-3.8,0.5-5.3,1.5
		c-1.5,1-2.6,2.4-3.3,4v16.5c0,0.7-0.2,1.1-0.4,1.4c-0.3,0.2-0.7,0.4-1.2,0.4h-0.4c-0.5,0-0.9-0.1-1.2-0.4c-0.3-0.2-0.4-0.7-0.4-1.4
		V41c0-0.1,0.1-0.2,0.4-0.2c0.2-0.1,0.5-0.1,0.9-0.1c0.6,0,1.2,0.2,1.7,0.7c0.5,0.4,0.7,1.4,0.7,2.8V44.9z"/>
	<path fill="#FFFFFF" d="M300.1,67.8c-2.6,0-5-0.5-7.2-1.4c-2.2-0.9-4-2.2-5.6-3.8c-1.6-1.6-2.8-3.6-3.6-5.8
		c-0.9-2.3-1.3-4.8-1.3-7.5c0-2.7,0.4-5.2,1.3-7.5c0.9-2.3,2.1-4.2,3.7-5.9c1.6-1.6,3.4-2.9,5.6-3.8c2.2-0.9,4.6-1.4,7.3-1.4
		c2.1,0,4,0.3,5.7,0.8c1.7,0.5,3,1.2,4.2,1.9c1.1,0.8,2,1.5,2.6,2.3c0.6,0.8,0.9,1.5,0.9,2c0,0.5-0.1,0.9-0.3,1.2
		c-0.2,0.3-0.5,0.6-0.7,0.7c-0.3,0.2-0.5,0.3-0.7,0.3c-0.2,0.1-0.4,0.1-0.4,0c-0.6-1-1.3-1.9-2.1-2.6c-0.8-0.8-1.8-1.4-2.8-1.9
		c-1-0.5-2-0.9-3.1-1.2c-1.1-0.3-2.2-0.4-3.2-0.4c-2.1,0-3.9,0.4-5.6,1.1c-1.7,0.8-3.2,1.8-4.4,3.1c-1.2,1.3-2.2,2.9-2.9,4.8
		c-0.7,1.9-1,3.9-1,6.1c0,2.2,0.3,4.2,1,6.1c0.7,1.9,1.7,3.5,2.9,4.9c1.2,1.4,2.7,2.4,4.4,3.2c1.7,0.8,3.6,1.1,5.6,1.1
		c1.3,0,2.6-0.2,3.8-0.5c1.2-0.3,2.3-0.8,3.3-1.4c1-0.6,1.9-1.3,2.6-2.2c0.8-0.9,1.3-1.8,1.7-2.9c0,0,0.1,0,0.4,0
		c0.3,0,0.5,0.1,0.9,0.3c0.3,0.2,0.6,0.4,0.8,0.7c0.2,0.3,0.4,0.7,0.4,1.2c0,0.6-0.3,1.3-0.9,2.2c-0.6,0.9-1.5,1.8-2.7,2.6
		c-1.2,0.9-2.7,1.6-4.4,2.2C304.4,67.4,302.4,67.8,300.1,67.8z"/>
	<path fill="#FFFFFF" d="M321.6,67.3c-0.5,0-0.9-0.1-1.2-0.4c-0.3-0.2-0.4-0.7-0.4-1.4V29.9c0-0.1,0.1-0.2,0.4-0.2
		c0.2-0.1,0.5-0.1,0.9-0.1c0.6,0,1.2,0.2,1.7,0.7c0.5,0.4,0.7,1.4,0.7,2.8v32.6c0,0.7-0.1,1.1-0.4,1.4c-0.3,0.2-0.7,0.4-1.2,0.4
		H321.6z"/>
	<path fill="#FFFFFF" d="M343,67.8c-2,0-3.8-0.4-5.5-1c-1.7-0.7-3.1-1.7-4.3-2.9c-1.2-1.2-2.1-2.7-2.8-4.4c-0.7-1.7-1-3.5-1-5.5
		c0-2,0.3-3.8,1-5.5c0.7-1.7,1.6-3.1,2.8-4.4c1.2-1.2,2.6-2.2,4.3-2.9c1.7-0.7,3.5-1,5.5-1c1.9,0,3.7,0.4,5.4,1
		c1.7,0.7,3.1,1.7,4.3,2.9c1.2,1.2,2.1,2.7,2.8,4.4c0.7,1.7,1,3.5,1,5.5c0,2-0.3,3.8-1,5.5c-0.7,1.7-1.6,3.1-2.8,4.4
		c-1.2,1.2-2.6,2.2-4.3,2.9C346.8,67.4,345,67.8,343,67.8z M343,64.6c1.4,0,2.7-0.3,3.9-0.8c1.2-0.5,2.3-1.3,3.1-2.2
		c0.9-0.9,1.6-2,2.1-3.3c0.5-1.3,0.7-2.7,0.7-4.2c0-1.5-0.2-3-0.7-4.3c-0.5-1.3-1.2-2.4-2.1-3.4c-0.9-1-1.9-1.7-3.1-2.2
		c-1.2-0.5-2.5-0.8-3.9-0.8c-1.4,0-2.8,0.3-4,0.8c-1.2,0.5-2.3,1.3-3.1,2.2c-0.9,0.9-1.6,2-2.1,3.3c-0.5,1.3-0.7,2.7-0.7,4.2
		c0,1.5,0.2,3,0.7,4.3c0.5,1.3,1.2,2.4,2.1,3.4c0.9,1,1.9,1.7,3.1,2.2C340.3,64.3,341.6,64.6,343,64.6z"/>
	<path fill="#FFFFFF" d="M381.3,63c-0.9,1.4-2.1,2.5-3.6,3.4c-1.5,0.9-3.3,1.3-5.3,1.3c-1.7,0-3.2-0.3-4.5-0.8
		c-1.3-0.6-2.4-1.3-3.2-2.3c-0.9-1-1.5-2.2-2-3.7c-0.4-1.4-0.7-3-0.7-4.7V42.3c0-0.7,0.1-1.1,0.4-1.4c0.3-0.2,0.7-0.4,1.2-0.4h0.4
		c0.5,0,0.9,0.1,1.2,0.4c0.3,0.2,0.4,0.7,0.4,1.4V56c0,2.6,0.6,4.7,1.9,6.2c1.3,1.5,3.1,2.2,5.4,2.2c1.9,0,3.6-0.5,5-1.5
		c1.4-1,2.5-2.4,3.3-4V42.3c0-0.7,0.1-1.1,0.4-1.4c0.3-0.2,0.7-0.4,1.2-0.4h0.4c0.5,0,0.9,0.1,1.2,0.4c0.3,0.2,0.4,0.7,0.4,1.4v24.6
		c0,0.1-0.1,0.2-0.4,0.2c-0.2,0.1-0.5,0.1-0.9,0.1c-0.6,0-1.2-0.2-1.7-0.7c-0.5-0.4-0.7-1.4-0.7-2.8V63z"/>
	<path fill="#FFFFFF" d="M412.7,29.9c0-0.1,0.1-0.2,0.4-0.2c0.2-0.1,0.5-0.1,0.9-0.1c0.6,0,1.2,0.2,1.7,0.7c0.5,0.4,0.7,1.4,0.7,2.8
		v32.6c0,0.7-0.1,1.1-0.4,1.4c-0.3,0.2-0.7,0.4-1.2,0.4h-0.4c-0.5,0-0.9-0.1-1.1-0.4c-0.3-0.2-0.4-0.7-0.4-1.4v-2.9
		c-1.2,1.6-2.6,2.9-4.1,3.7c-1.6,0.9-3.5,1.3-5.7,1.3c-1.7,0-3.3-0.3-4.9-1c-1.5-0.6-2.8-1.6-3.9-2.8c-1.1-1.2-2-2.6-2.6-4.3
		c-0.6-1.7-1-3.6-1-5.7c0-2.1,0.3-3.9,0.9-5.7c0.6-1.7,1.5-3.2,2.6-4.4c1.1-1.2,2.5-2.2,4-2.8c1.5-0.7,3.2-1,5-1
		c2.4,0,4.3,0.5,6,1.4c1.6,0.9,2.8,2,3.6,3.2V29.9z M412.7,49.5c-0.8-1.9-2-3.4-3.6-4.5c-1.5-1.1-3.4-1.7-5.8-1.7
		c-1.4,0-2.7,0.3-3.8,0.8c-1.1,0.5-2.1,1.2-2.9,2.2c-0.8,0.9-1.4,2.1-1.9,3.4c-0.4,1.3-0.7,2.7-0.7,4.3c0,1.5,0.2,3,0.7,4.3
		c0.5,1.3,1.1,2.4,1.9,3.4c0.8,0.9,1.8,1.7,2.9,2.2s2.3,0.8,3.7,0.8c1.2,0,2.4-0.2,3.5-0.7c1.1-0.4,2.2-1.1,3-1.8
		c0.9-0.8,1.6-1.7,2.1-2.8c0.5-1.1,0.8-2.3,0.8-3.5V49.5z"/>
</g>
<rect x="1.5" y="78" fill="#FFDE00" width="69.8" height="3.3"/>
<rect x="71.4" y="78" fill="#E22778" width="69.1" height="3.3"/>
<rect x="140.5" y="78" fill="#18A3A4" width="69.2" height="3.3"/>
<rect x="209.7" y="78" fill="#0063A8" width="69.1" height="3.3"/>
<rect x="278.8" y="78" fill="#EC2224" width="69.1" height="3.3"/>
<rect x="347.7" y="78" fill="#049146" width="69.1" height="3.3"/>
<g>
	<path fill="#FFFFFF" d="M418.5,18.8h-1.7v-0.9h4.6v0.9h-1.7V24h-1.1V18.8z"/>
	<path fill="#FFFFFF" d="M427.2,21.5c0-0.8-0.1-1.7-0.1-2.5h0c-0.2,0.7-0.5,1.6-0.7,2.3l-0.9,2.6h-0.9l-0.8-2.6
		c-0.2-0.8-0.5-1.6-0.6-2.4h0c0,0.8-0.1,1.8-0.1,2.6l-0.1,2.4h-1l0.4-6.1h1.5l0.8,2.4c0.2,0.7,0.4,1.4,0.6,2.1h0
		c0.2-0.7,0.4-1.4,0.6-2.1l0.8-2.4h1.4l0.4,6.1h-1.1L427.2,21.5z"/>
</g>
</svg>
