<?xml version="1.0" encoding="utf-8"?>
<!-- Generator: Adobe Illustrator 18.1.1, SVG Export Plug-In . SVG Version: 6.00 Build 0)  -->
<!DOCTYPE svg PUBLIC "-//W3C//DTD SVG 1.1 Tiny//EN" "http://www.w3.org/Graphics/SVG/1.1/DTD/svg11-tiny.dtd">
<svg version="1.1" baseProfile="tiny" id="Layer_1" xmlns="http://www.w3.org/2000/svg" xmlns:xlink="http://www.w3.org/1999/xlink"
	 x="0px" y="0px" viewBox="0 0 427.6 79.8" xml:space="preserve">
<g>
	<path d="M30.2,36.2v29.5c-15.6-1.5-28-13.9-29.5-29.5H30.2z"/>
	<path d="M30.2,29.8H0.7c1.5-15.6,13.9-28,29.5-29.5V29.8z"/>
	<path d="M36.6,36.2h29.5c-1.5,15.6-13.9,28-29.5,29.5V36.2z"/>
</g>
<g>
	<path d="M79.5,19.2c-0.5,0-0.8-0.3-0.8-0.9V2c0-0.4,0.1-0.6,0.4-0.9s0.6-0.3,1-0.3h0.5c0.5,0,0.8,0.1,1,0.4
		c0.2,0.2,0.4,0.6,0.6,1.1L87,12.8l4.8-10.6c0.2-0.5,0.4-0.8,0.6-1.1c0.2-0.2,0.5-0.4,1-0.4h0.4c0.4,0,0.8,0.1,1,0.3
		s0.4,0.5,0.4,0.9v16.3c0,0.6-0.3,0.9-0.8,0.9h-0.2c-0.5,0-0.8-0.3-0.8-0.9V3l-4.7,10.3c-0.2,0.4-0.4,0.7-0.6,0.9
		c-0.2,0.2-0.6,0.3-1,0.3c-0.5,0-0.8-0.1-1.1-0.3c-0.2-0.2-0.4-0.5-0.6-0.9L80.6,3v15.3c0,0.6-0.3,0.9-0.8,0.9H79.5z"/>
	<path d="M108,10.6c0-1.2-0.3-2.1-1-2.7c-0.6-0.6-1.6-0.9-2.8-0.9c-1.1,0-2,0.2-2.7,0.7c-0.7,0.5-1.2,1.1-1.6,1.8
		c-0.2,0-0.4-0.1-0.5-0.2c-0.1-0.1-0.2-0.2-0.4-0.3s-0.2-0.3-0.2-0.6s0.1-0.5,0.4-0.9c0.2-0.3,0.6-0.7,1-1s1-0.6,1.7-0.8
		c0.7-0.2,1.5-0.3,2.3-0.3c1.7,0,3,0.5,4,1.4c1,0.9,1.4,2.2,1.4,3.8V19c0,0-0.1,0.1-0.2,0.1c-0.1,0-0.3,0.1-0.4,0.1
		c-0.3,0-0.6-0.1-0.8-0.3c-0.2-0.2-0.3-0.7-0.3-1.4v-0.5c-0.5,0.8-1.2,1.4-2.1,1.8c-0.9,0.4-1.8,0.6-2.9,0.6c-1.5,0-2.6-0.3-3.4-1
		c-0.8-0.7-1.2-1.6-1.2-2.7c0-1.6,0.8-2.7,2.3-3.4c1.5-0.7,3.9-1.1,7-1.1h0.3V10.6z M103.2,17.9c0.7,0,1.3-0.1,1.9-0.3
		c0.6-0.2,1.1-0.5,1.5-0.9c0.4-0.4,0.8-0.8,1-1.3s0.4-1,0.4-1.6v-1.2l-0.8,0c-2.3,0.1-4,0.4-5.2,0.8c-1.2,0.4-1.7,1.2-1.7,2.3
		c0,0.7,0.3,1.2,0.8,1.6C101.5,17.7,102.3,17.9,103.2,17.9z"/>
	<path d="M115.2,8.2c0.6-1.9,1.8-2.8,3.5-2.8c0.6,0,1.1,0.1,1.4,0.4s0.5,0.6,0.5,1c0,0.3-0.1,0.6-0.2,0.8s-0.2,0.2-0.3,0.2
		c-0.2-0.2-0.4-0.3-0.7-0.4c-0.3-0.1-0.6-0.2-0.9-0.2c-0.6,0-1.1,0.1-1.5,0.4c-0.4,0.3-0.8,0.7-1,1.2c-0.3,0.5-0.5,1.1-0.6,1.9
		c-0.1,0.7-0.2,1.5-0.2,2.4v5.2c0,0.3-0.1,0.6-0.2,0.7c-0.2,0.1-0.4,0.2-0.6,0.2h-0.2c-0.2,0-0.4-0.1-0.6-0.2
		c-0.2-0.1-0.2-0.4-0.2-0.7V5.8c0,0,0.1-0.1,0.2-0.1c0.1,0,0.3-0.1,0.4-0.1c0.3,0,0.6,0.1,0.8,0.3c0.2,0.2,0.4,0.7,0.4,1.4V8.2z"/>
	<path d="M124.7,18.3c0,0.3-0.1,0.6-0.2,0.7c-0.2,0.1-0.4,0.2-0.6,0.2h-0.2c-0.2,0-0.4-0.1-0.6-0.2c-0.2-0.1-0.2-0.4-0.2-0.7V0.2
		c0,0,0.1-0.1,0.2-0.1c0.1,0,0.3-0.1,0.4-0.1c0.3,0,0.6,0.1,0.9,0.3c0.2,0.2,0.4,0.7,0.4,1.4v10.1l5.4-5.5c0.3-0.3,0.5-0.4,0.7-0.6
		c0.2-0.1,0.4-0.2,0.6-0.2s0.3,0,0.5,0.1s0.2,0.2,0.3,0.3s0.1,0.2,0.1,0.3c0,0.1,0,0.1,0,0.2l-5.5,5.5l6.4,6.2c0,0,0,0.1,0,0.2
		c0,0.1-0.1,0.2-0.2,0.3c-0.1,0.1-0.2,0.2-0.3,0.3s-0.3,0.1-0.5,0.1c-0.2,0-0.3-0.1-0.5-0.2s-0.4-0.3-0.7-0.5l-6.2-6.2V18.3z"/>
	<path d="M136.2,12.9c0,0.7,0.2,1.4,0.4,1.9c0.3,0.6,0.6,1.1,1.1,1.5c0.4,0.4,1,0.8,1.6,1s1.3,0.4,2,0.4c0.7,0,1.2-0.1,1.7-0.2
		c0.5-0.1,0.9-0.3,1.3-0.5c0.4-0.2,0.7-0.5,0.9-0.8c0.3-0.3,0.5-0.6,0.7-0.9c0,0,0.1,0,0.2,0c0.1,0,0.2,0.1,0.4,0.2
		c0.1,0.1,0.2,0.2,0.4,0.3s0.2,0.3,0.2,0.5c0,0.2-0.1,0.5-0.4,0.9c-0.3,0.3-0.6,0.7-1.1,1c-0.5,0.3-1.1,0.6-1.8,0.8
		s-1.5,0.3-2.4,0.3c-1,0-1.9-0.2-2.8-0.5c-0.8-0.3-1.6-0.8-2.2-1.4c-0.6-0.6-1.1-1.3-1.4-2.2c-0.3-0.8-0.5-1.8-0.5-2.8
		c0-1,0.2-1.9,0.5-2.8c0.3-0.9,0.8-1.6,1.4-2.2c0.6-0.6,1.3-1.1,2.1-1.5s1.7-0.5,2.7-0.5c0.9,0,1.8,0.2,2.5,0.5s1.4,0.8,2,1.4
		c0.5,0.6,1,1.3,1.3,2.1c0.3,0.8,0.4,1.8,0.4,2.8v0.2c0,0.3-0.1,0.4-0.2,0.5c-0.1,0.1-0.3,0.1-0.6,0.1H136.2z M145.4,11.3
		c-0.1-1.3-0.5-2.4-1.3-3.2c-0.8-0.8-1.8-1.2-3-1.2c-0.6,0-1.2,0.1-1.8,0.3c-0.5,0.2-1,0.5-1.4,0.9c-0.4,0.4-0.8,0.8-1,1.4
		c-0.3,0.5-0.5,1.1-0.6,1.8H145.4z"/>
	<path d="M149.7,7.4c-0.3,0-0.6-0.1-0.7-0.2c-0.1-0.1-0.2-0.3-0.2-0.6V6.5c0-0.2,0.1-0.4,0.2-0.6c0.1-0.1,0.4-0.2,0.7-0.2h1.2V3.4
		c0-0.3,0.1-0.6,0.2-0.7c0.1-0.1,0.3-0.2,0.6-0.2h0.2c0.2,0,0.4,0.1,0.6,0.2c0.1,0.1,0.2,0.4,0.2,0.7v2.3h3.6c0.3,0,0.6,0.1,0.7,0.2
		c0.1,0.1,0.2,0.3,0.2,0.6v0.2c0,0.2-0.1,0.4-0.2,0.6c-0.1,0.1-0.3,0.2-0.7,0.2h-3.6V15c0,1,0.1,1.7,0.4,2.2
		c0.3,0.5,0.8,0.7,1.6,0.7c0.5,0,0.9-0.1,1.2-0.3c0.3-0.2,0.6-0.4,0.9-0.7c0,0,0.1,0,0.3,0.2c0.2,0.1,0.3,0.4,0.3,0.7
		c0,0.4-0.2,0.7-0.7,1.1c-0.5,0.4-1.1,0.5-2,0.5c-1.3,0-2.3-0.4-2.8-1.1c-0.6-0.7-0.9-1.8-0.9-3.2V7.4H149.7z"/>
	<path d="M165.6,19.4c-1,0-1.9-0.1-2.7-0.4c-0.8-0.2-1.5-0.5-2.1-0.9s-1-0.8-1.3-1.2c-0.3-0.4-0.5-0.8-0.5-1.1
		c0-0.2,0.1-0.4,0.2-0.5c0.1-0.1,0.2-0.3,0.4-0.4c0.1-0.1,0.3-0.2,0.4-0.2c0.1,0,0.2,0,0.2,0c0.5,0.8,1.2,1.6,2.1,2.2
		c0.9,0.6,2,0.9,3.4,0.9c1.4,0,2.5-0.3,3.3-0.9c0.8-0.6,1.2-1.4,1.2-2.5c0-0.6-0.1-1.1-0.4-1.5c-0.3-0.4-0.6-0.7-1.1-1
		c-0.5-0.3-1-0.5-1.6-0.7c-0.6-0.2-1.2-0.3-1.9-0.5c-0.7-0.2-1.4-0.4-2-0.6c-0.7-0.2-1.3-0.5-1.8-0.9c-0.5-0.4-1-0.9-1.3-1.5
		c-0.3-0.6-0.5-1.3-0.5-2.2c0-0.7,0.2-1.4,0.5-2c0.3-0.6,0.7-1.1,1.3-1.6c0.5-0.4,1.2-0.8,1.9-1.1c0.7-0.3,1.5-0.4,2.4-0.4
		c0.9,0,1.8,0.1,2.5,0.3c0.7,0.2,1.4,0.5,1.9,0.8c0.5,0.3,0.9,0.7,1.2,1c0.3,0.4,0.4,0.7,0.4,1c0,0.2-0.1,0.4-0.2,0.5
		c-0.1,0.1-0.2,0.3-0.4,0.4c-0.1,0.1-0.3,0.2-0.4,0.2c-0.1,0-0.2,0-0.2,0c-0.4-0.7-1.1-1.4-1.9-1.9s-1.8-0.8-2.9-0.8
		c-1.3,0-2.3,0.3-3.1,0.9c-0.8,0.6-1.2,1.4-1.2,2.4c0,0.6,0.1,1.1,0.3,1.4c0.2,0.4,0.5,0.7,1,0.9s0.9,0.4,1.5,0.6
		c0.6,0.2,1.2,0.3,1.9,0.5c0.7,0.2,1.4,0.4,2.2,0.6c0.7,0.2,1.3,0.6,1.9,1c0.6,0.4,1,0.9,1.4,1.5c0.3,0.6,0.5,1.4,0.5,2.3
		c0,0.8-0.1,1.5-0.4,2.1s-0.7,1.2-1.3,1.6c-0.5,0.4-1.2,0.8-2,1C167.4,19.3,166.6,19.4,165.6,19.4z"/>
	<path d="M176.8,7.9c0.5-0.7,1.1-1.3,1.8-1.8c0.7-0.5,1.6-0.7,2.7-0.7c0.9,0,1.6,0.1,2.3,0.4c0.7,0.3,1.2,0.7,1.6,1.2
		c0.4,0.5,0.8,1.1,1,1.9c0.2,0.7,0.3,1.5,0.3,2.4v7c0,0.3-0.1,0.6-0.2,0.7c-0.2,0.1-0.4,0.2-0.6,0.2h-0.2c-0.2,0-0.4-0.1-0.6-0.2
		c-0.2-0.1-0.2-0.4-0.2-0.7v-6.9c0-1.3-0.3-2.4-0.9-3.1c-0.6-0.8-1.5-1.1-2.6-1.1c-1.3,0-2.4,0.4-3.2,1.2c-0.8,0.8-1.2,1.9-1.2,3.3
		v6.6c0,0.3-0.1,0.6-0.2,0.7c-0.2,0.1-0.4,0.2-0.6,0.2h-0.2c-0.2,0-0.4-0.1-0.6-0.2c-0.2-0.1-0.2-0.4-0.2-0.7V0.2
		c0,0,0.1-0.1,0.2-0.1c0.1,0,0.3-0.1,0.4-0.1c0.3,0,0.6,0.1,0.9,0.3c0.2,0.2,0.4,0.7,0.4,1.4V7.9z"/>
	<path d="M198.9,10.6c0-1.2-0.3-2.1-1-2.7c-0.6-0.6-1.6-0.9-2.8-0.9c-1.1,0-2,0.2-2.7,0.7s-1.2,1.1-1.6,1.8c-0.2,0-0.4-0.1-0.5-0.2
		c-0.1-0.1-0.2-0.2-0.3-0.3s-0.2-0.3-0.2-0.6s0.1-0.5,0.3-0.9c0.2-0.3,0.6-0.7,1-1s1-0.6,1.7-0.8c0.7-0.2,1.5-0.3,2.3-0.3
		c1.7,0,3,0.5,4,1.4c1,0.9,1.4,2.2,1.4,3.8V19c0,0-0.1,0.1-0.2,0.1c-0.1,0-0.3,0.1-0.4,0.1c-0.3,0-0.6-0.1-0.8-0.3
		c-0.2-0.2-0.3-0.7-0.3-1.4v-0.5c-0.5,0.8-1.2,1.4-2.1,1.8c-0.9,0.4-1.8,0.6-2.9,0.6c-1.5,0-2.6-0.3-3.4-1c-0.8-0.7-1.2-1.6-1.2-2.7
		c0-1.6,0.8-2.7,2.3-3.4c1.5-0.7,3.9-1.1,7-1.1h0.3V10.6z M194.1,17.9c0.7,0,1.3-0.1,1.9-0.3c0.6-0.2,1.1-0.5,1.5-0.9
		c0.4-0.4,0.8-0.8,1-1.3s0.4-1,0.4-1.6v-1.2l-0.8,0c-2.3,0.1-4,0.4-5.2,0.8c-1.2,0.4-1.7,1.2-1.7,2.3c0,0.7,0.3,1.2,0.8,1.6
		C192.5,17.7,193.2,17.9,194.1,17.9z"/>
	<path d="M206.2,8.2c0.6-1.9,1.8-2.8,3.5-2.8c0.6,0,1.1,0.1,1.4,0.4c0.3,0.2,0.5,0.6,0.5,1c0,0.3-0.1,0.6-0.2,0.8s-0.2,0.2-0.3,0.2
		c-0.2-0.2-0.4-0.3-0.7-0.4c-0.3-0.1-0.6-0.2-0.9-0.2c-0.6,0-1.1,0.1-1.5,0.4c-0.4,0.3-0.8,0.7-1,1.2c-0.3,0.5-0.5,1.1-0.6,1.9
		c-0.1,0.7-0.2,1.5-0.2,2.4v5.2c0,0.3-0.1,0.6-0.2,0.7c-0.2,0.1-0.4,0.2-0.6,0.2h-0.2c-0.2,0-0.4-0.1-0.6-0.2
		c-0.2-0.1-0.2-0.4-0.2-0.7V5.8c0,0,0.1-0.1,0.2-0.1c0.1,0,0.3-0.1,0.4-0.1c0.3,0,0.6,0.1,0.8,0.3c0.2,0.2,0.4,0.7,0.4,1.4V8.2z"/>
	<path d="M214.8,12.9c0,0.7,0.2,1.4,0.4,1.9c0.3,0.6,0.6,1.1,1.1,1.5c0.4,0.4,1,0.8,1.6,1s1.3,0.4,2,0.4c0.7,0,1.2-0.1,1.7-0.2
		c0.5-0.1,0.9-0.3,1.3-0.5c0.4-0.2,0.7-0.5,0.9-0.8c0.3-0.3,0.5-0.6,0.7-0.9c0,0,0.1,0,0.2,0c0.1,0,0.2,0.1,0.4,0.2
		c0.1,0.1,0.2,0.2,0.4,0.3s0.2,0.3,0.2,0.5c0,0.2-0.1,0.5-0.4,0.9c-0.3,0.3-0.6,0.7-1.1,1c-0.5,0.3-1.1,0.6-1.8,0.8
		s-1.5,0.3-2.4,0.3c-1,0-1.9-0.2-2.8-0.5c-0.8-0.3-1.6-0.8-2.2-1.4c-0.6-0.6-1.1-1.3-1.4-2.2c-0.3-0.8-0.5-1.8-0.5-2.8
		c0-1,0.2-1.9,0.5-2.8c0.3-0.9,0.8-1.6,1.4-2.2c0.6-0.6,1.3-1.1,2.1-1.5s1.7-0.5,2.7-0.5c0.9,0,1.8,0.2,2.5,0.5s1.4,0.8,2,1.4
		c0.5,0.6,1,1.3,1.3,2.1c0.3,0.8,0.4,1.8,0.4,2.8v0.2c0,0.3-0.1,0.4-0.2,0.5c-0.1,0.1-0.3,0.1-0.6,0.1H214.8z M223.9,11.3
		c-0.1-1.3-0.5-2.4-1.3-3.2c-0.8-0.8-1.8-1.2-3-1.2c-0.6,0-1.2,0.1-1.8,0.3c-0.5,0.2-1,0.5-1.4,0.9c-0.4,0.4-0.8,0.8-1,1.4
		c-0.3,0.5-0.5,1.1-0.6,1.8H223.9z"/>
</g>
<g>
	<path d="M81,65.6c-0.6,0-1.1-0.2-1.5-0.6c-0.4-0.4-0.6-0.9-0.6-1.5V32c0-0.6,0.2-1.1,0.6-1.5c0.4-0.4,0.9-0.6,1.5-0.6h8.4
		c3.1,0,5.8,0.4,8.2,1.2c2.4,0.8,4.4,2,6.1,3.5c1.7,1.5,3,3.4,3.8,5.6c0.9,2.2,1.3,4.7,1.3,7.5c0,2.8-0.5,5.3-1.4,7.6
		c-0.9,2.2-2.2,4.1-3.9,5.6c-1.7,1.5-3.8,2.7-6.2,3.5c-2.5,0.8-5.2,1.2-8.3,1.2H81z M89.4,62.3c5,0,8.9-1.3,11.6-3.8
		s4.1-6.1,4.1-10.8c0-2.3-0.4-4.3-1.1-6.1c-0.7-1.8-1.7-3.3-3.1-4.6c-1.3-1.3-3-2.2-4.9-2.9c-1.9-0.7-4.1-1-6.6-1h-6.8v29.2H89.4z"
		/>
	<path d="M117.3,53.4c0.1,1.4,0.4,2.7,0.9,3.8c0.5,1.2,1.2,2.2,2.1,3c0.9,0.8,1.9,1.5,3.1,2c1.2,0.5,2.5,0.7,3.9,0.7
		c1.3,0,2.4-0.1,3.4-0.4c1-0.3,1.8-0.6,2.5-1c0.7-0.4,1.3-0.9,1.8-1.5c0.5-0.6,0.9-1.2,1.4-1.8c0,0,0.2,0,0.4,0
		c0.2,0,0.5,0.1,0.7,0.3c0.3,0.2,0.5,0.4,0.7,0.7c0.2,0.3,0.3,0.6,0.3,1.1c0,0.4-0.2,1-0.7,1.7c-0.5,0.7-1.2,1.3-2.2,1.9
		c-0.9,0.6-2.1,1.2-3.5,1.6s-3,0.7-4.7,0.7c-2,0-3.8-0.3-5.5-1c-1.7-0.7-3.1-1.6-4.3-2.8c-1.2-1.2-2.1-2.7-2.8-4.3
		c-0.7-1.7-1-3.5-1-5.5c0-2,0.3-3.8,1-5.5c0.7-1.7,1.6-3.2,2.8-4.4c1.2-1.2,2.6-2.2,4.2-2.9c1.6-0.7,3.4-1,5.3-1
		c1.8,0,3.5,0.3,5,0.9c1.5,0.6,2.8,1.5,3.9,2.7c1.1,1.2,1.9,2.6,2.5,4.2c0.6,1.6,0.9,3.4,0.9,5.4v0.3c0,0.5-0.1,0.8-0.3,1
		c-0.2,0.1-0.6,0.2-1.2,0.2H117.3z M135.4,50.3c-0.2-2.6-1-4.7-2.5-6.2c-1.5-1.5-3.5-2.3-5.9-2.3c-1.2,0-2.4,0.2-3.5,0.6
		c-1.1,0.4-2,1-2.8,1.8c-0.8,0.8-1.5,1.7-2.1,2.7c-0.6,1-0.9,2.2-1.1,3.4H135.4z"/>
	<path d="M156.5,66.2c-1.9,0-3.7-0.4-5.4-1c-1.6-0.7-3.1-1.7-4.3-2.9c-1.2-1.2-2.2-2.7-2.8-4.4c-0.7-1.7-1-3.5-1-5.5
		c0-2,0.3-3.8,1-5.5c0.7-1.7,1.6-3.1,2.8-4.4c1.2-1.2,2.6-2.2,4.3-2.9c1.6-0.7,3.4-1,5.4-1c1.9,0,3.6,0.3,5,0.8
		c1.4,0.5,2.6,1.2,3.5,2c0.9,0.8,1.6,1.6,2.1,2.4c0.5,0.8,0.7,1.5,0.7,2.1c0,0.4-0.1,0.7-0.4,1c-0.2,0.2-0.5,0.4-0.8,0.6
		c-0.3,0.1-0.6,0.2-0.8,0.2c-0.2,0-0.4,0-0.4-0.1c-0.3-0.8-0.8-1.6-1.3-2.3c-0.5-0.7-1.1-1.3-1.8-1.8c-0.7-0.5-1.6-0.9-2.5-1.2
		c-1-0.3-2.1-0.4-3.3-0.4c-1.4,0-2.7,0.3-3.9,0.8c-1.2,0.5-2.3,1.2-3.1,2.2c-0.9,0.9-1.6,2-2.1,3.3c-0.5,1.3-0.7,2.7-0.7,4.2
		s0.2,2.9,0.7,4.2c0.5,1.3,1.2,2.4,2.1,3.3c0.9,1,1.9,1.7,3.1,2.2c1.2,0.5,2.5,0.8,3.9,0.8c1.3,0,2.4-0.1,3.3-0.4
		c1-0.3,1.8-0.7,2.5-1.2c0.7-0.5,1.3-1.1,1.8-1.8c0.5-0.7,0.9-1.5,1.3-2.3c0,0,0.2,0,0.4,0c0.2,0,0.5,0.1,0.8,0.2
		c0.3,0.1,0.6,0.3,0.8,0.6c0.2,0.2,0.4,0.6,0.4,1c0,0.6-0.2,1.3-0.7,2.1c-0.5,0.8-1.2,1.6-2.1,2.4c-0.9,0.8-2.1,1.4-3.5,2
		C160.1,65.9,158.4,66.2,156.5,66.2z"/>
	<path d="M175.3,32.7c-1.5,0-2.3-0.8-2.3-2.4c0-1.6,0.8-2.4,2.4-2.4c1.5,0,2.3,0.8,2.3,2.4C177.8,31.9,177,32.7,175.3,32.7z
		 M175.2,65.8c-0.5,0-0.9-0.1-1.2-0.4c-0.3-0.2-0.4-0.7-0.4-1.4V40.8c0-0.7,0.1-1.1,0.4-1.4c0.3-0.2,0.7-0.4,1.2-0.4h0.4
		c0.5,0,0.9,0.1,1.2,0.4c0.3,0.2,0.4,0.7,0.4,1.4v23.3c0,0.7-0.1,1.1-0.4,1.4c-0.3,0.2-0.7,0.4-1.2,0.4H175.2z"/>
	<path d="M193.6,66.2c-1.8,0-3.3-0.2-4.7-0.6c-1.3-0.4-2.5-0.8-3.4-1.4c-0.9-0.6-1.6-1.1-2.1-1.7c-0.5-0.6-0.7-1.2-0.7-1.7
		c0-0.4,0.1-0.7,0.3-0.9c0.2-0.3,0.4-0.5,0.6-0.6c0.2-0.2,0.5-0.3,0.7-0.3c0.2-0.1,0.3-0.1,0.4,0c0.9,1.2,2,2.2,3.5,3
		c1.5,0.8,3.3,1.2,5.5,1.2c2.2,0,3.9-0.4,5-1.2c1.2-0.8,1.7-1.9,1.7-3.2c0-0.8-0.2-1.4-0.5-1.9c-0.3-0.5-0.8-0.9-1.5-1.3
		c-0.7-0.3-1.5-0.6-2.4-0.9c-1-0.2-2.1-0.5-3.3-0.7c-1-0.2-2.1-0.5-3.2-0.8c-1.1-0.3-2.1-0.7-3-1.2c-0.9-0.5-1.6-1.2-2.2-2.1
		c-0.6-0.8-0.9-1.9-0.9-3.3c0-1.2,0.2-2.3,0.7-3.2c0.5-1,1.2-1.8,2-2.5c0.9-0.7,1.9-1.2,3.2-1.6c1.2-0.4,2.6-0.6,4.1-0.6
		c1.6,0,3,0.2,4.2,0.5c1.2,0.3,2.2,0.8,3.1,1.3c0.8,0.5,1.4,1.1,1.8,1.7c0.4,0.6,0.6,1.1,0.6,1.6c0,0.3-0.1,0.6-0.3,0.9
		c-0.2,0.3-0.4,0.5-0.7,0.6c-0.2,0.2-0.5,0.3-0.7,0.3c-0.2,0.1-0.3,0.1-0.4,0c-0.7-1.1-1.8-2.1-3.1-2.8c-1.3-0.7-2.9-1.1-4.7-1.1
		c-2.2,0-3.8,0.4-4.9,1.2c-1.1,0.8-1.7,1.9-1.7,3.2c0,1.4,0.6,2.4,1.8,3c1.2,0.6,3.1,1.1,5.5,1.7c1.1,0.2,2.2,0.5,3.3,0.8
		c1.1,0.3,2.2,0.7,3.1,1.3s1.7,1.2,2.3,2.1c0.6,0.9,0.9,2,0.9,3.3c0,2.4-0.9,4.4-2.8,5.8C199.4,65.5,196.9,66.2,193.6,66.2z"/>
	<path d="M211.9,32.7c-1.5,0-2.3-0.8-2.3-2.4c0-1.6,0.8-2.4,2.4-2.4c1.5,0,2.3,0.8,2.3,2.4C214.3,31.9,213.5,32.7,211.9,32.7z
		 M211.8,65.8c-0.5,0-0.9-0.1-1.2-0.4c-0.3-0.2-0.4-0.7-0.4-1.4V40.8c0-0.7,0.1-1.1,0.4-1.4c0.3-0.2,0.7-0.4,1.2-0.4h0.4
		c0.5,0,0.9,0.1,1.2,0.4c0.3,0.2,0.4,0.7,0.4,1.4v23.3c0,0.7-0.1,1.1-0.4,1.4c-0.3,0.2-0.7,0.4-1.2,0.4H211.8z"/>
	<path d="M233.2,66.2c-2,0-3.8-0.4-5.5-1c-1.7-0.7-3.1-1.7-4.3-2.9c-1.2-1.2-2.1-2.7-2.8-4.4c-0.7-1.7-1-3.5-1-5.5
		c0-2,0.3-3.8,1-5.5c0.7-1.7,1.6-3.1,2.8-4.4c1.2-1.2,2.6-2.2,4.3-2.9c1.7-0.7,3.5-1,5.5-1c1.9,0,3.7,0.4,5.4,1
		c1.7,0.7,3.1,1.7,4.3,2.9c1.2,1.2,2.1,2.7,2.8,4.4c0.7,1.7,1,3.5,1,5.5c0,2-0.3,3.8-1,5.5c-0.7,1.7-1.6,3.1-2.8,4.4
		c-1.2,1.2-2.6,2.2-4.3,2.9C236.9,65.9,235.1,66.2,233.2,66.2z M233.2,63.1c1.4,0,2.7-0.3,3.9-0.8c1.2-0.5,2.3-1.3,3.1-2.2
		c0.9-0.9,1.6-2,2.1-3.3c0.5-1.3,0.7-2.7,0.7-4.2c0-1.5-0.2-3-0.7-4.3c-0.5-1.3-1.2-2.4-2.1-3.4c-0.9-1-1.9-1.7-3.1-2.2
		c-1.2-0.5-2.5-0.8-3.9-0.8c-1.4,0-2.8,0.3-4,0.8c-1.2,0.5-2.3,1.3-3.1,2.2c-0.9,0.9-1.6,2-2.1,3.3c-0.5,1.3-0.7,2.7-0.7,4.2
		c0,1.5,0.2,3,0.7,4.3s1.2,2.4,2.1,3.4c0.9,1,1.9,1.7,3.1,2.2C230.4,62.8,231.8,63.1,233.2,63.1z"/>
	<path d="M256,43.4c0.9-1.4,2.1-2.5,3.6-3.4c1.5-0.9,3.3-1.3,5.3-1.3c1.7,0,3.2,0.3,4.5,0.8c1.3,0.6,2.4,1.3,3.2,2.3
		c0.9,1,1.5,2.2,2,3.7c0.4,1.4,0.7,3,0.7,4.7v13.8c0,0.7-0.2,1.1-0.4,1.4c-0.3,0.2-0.7,0.4-1.2,0.4h-0.4c-0.5,0-0.9-0.1-1.2-0.4
		c-0.3-0.2-0.4-0.7-0.4-1.4V50.4c0-2.6-0.6-4.7-1.8-6.2c-1.2-1.5-2.9-2.2-5.2-2.2c-2,0-3.8,0.5-5.3,1.5c-1.5,1-2.6,2.4-3.3,4v16.5
		c0,0.7-0.2,1.1-0.4,1.4c-0.3,0.2-0.7,0.4-1.2,0.4H254c-0.5,0-0.9-0.1-1.2-0.4c-0.3-0.2-0.4-0.7-0.4-1.4V39.5c0-0.1,0.1-0.2,0.4-0.2
		c0.2-0.1,0.5-0.1,0.9-0.1c0.6,0,1.2,0.2,1.7,0.7c0.5,0.4,0.7,1.4,0.7,2.8V43.4z"/>
	<path d="M299.2,66.2c-2.6,0-5-0.5-7.2-1.4c-2.2-0.9-4-2.2-5.6-3.8c-1.6-1.6-2.8-3.6-3.6-5.8c-0.9-2.3-1.3-4.8-1.3-7.5
		c0-2.7,0.4-5.2,1.3-7.5c0.9-2.3,2.1-4.2,3.7-5.9c1.6-1.6,3.4-2.9,5.6-3.8c2.2-0.9,4.6-1.4,7.3-1.4c2.1,0,4,0.3,5.7,0.8
		c1.7,0.5,3,1.2,4.2,1.9c1.1,0.8,2,1.5,2.6,2.3c0.6,0.8,0.9,1.5,0.9,2c0,0.5-0.1,0.9-0.3,1.2c-0.2,0.3-0.5,0.6-0.7,0.7
		c-0.3,0.2-0.5,0.3-0.7,0.3c-0.2,0.1-0.4,0.1-0.4,0c-0.6-1-1.3-1.9-2.1-2.6c-0.8-0.8-1.8-1.4-2.8-1.9c-1-0.5-2-0.9-3.1-1.2
		c-1.1-0.3-2.2-0.4-3.2-0.4c-2.1,0-3.9,0.4-5.6,1.1c-1.7,0.8-3.2,1.8-4.4,3.1c-1.2,1.3-2.2,2.9-2.9,4.8c-0.7,1.9-1,3.9-1,6.1
		c0,2.2,0.3,4.2,1,6.1c0.7,1.9,1.7,3.5,2.9,4.9c1.2,1.4,2.7,2.4,4.4,3.2c1.7,0.8,3.6,1.1,5.6,1.1c1.3,0,2.6-0.2,3.8-0.5
		c1.2-0.3,2.3-0.8,3.3-1.4c1-0.6,1.9-1.3,2.6-2.2c0.8-0.9,1.3-1.8,1.7-2.9c0,0,0.1,0,0.4,0c0.3,0,0.5,0.1,0.9,0.3
		c0.3,0.2,0.6,0.4,0.8,0.7c0.2,0.3,0.4,0.7,0.4,1.2c0,0.6-0.3,1.3-0.9,2.2c-0.6,0.9-1.5,1.8-2.7,2.6c-1.2,0.9-2.7,1.6-4.4,2.2
		C303.6,65.9,301.5,66.2,299.2,66.2z"/>
	<path d="M320.7,65.8c-0.5,0-0.9-0.1-1.2-0.4c-0.3-0.2-0.4-0.7-0.4-1.4V28.4c0-0.1,0.1-0.2,0.4-0.2c0.2-0.1,0.5-0.1,0.9-0.1
		c0.6,0,1.2,0.2,1.7,0.7c0.5,0.4,0.7,1.4,0.7,2.8v32.6c0,0.7-0.1,1.1-0.4,1.4c-0.3,0.2-0.7,0.4-1.2,0.4H320.7z"/>
	<path d="M342.2,66.2c-2,0-3.8-0.4-5.5-1c-1.7-0.7-3.1-1.7-4.3-2.9c-1.2-1.2-2.1-2.7-2.8-4.4c-0.7-1.7-1-3.5-1-5.5
		c0-2,0.3-3.8,1-5.5c0.7-1.7,1.6-3.1,2.8-4.4c1.2-1.2,2.6-2.2,4.3-2.9c1.7-0.7,3.5-1,5.5-1c1.9,0,3.7,0.4,5.4,1
		c1.7,0.7,3.1,1.7,4.3,2.9c1.2,1.2,2.1,2.7,2.8,4.4c0.7,1.7,1,3.5,1,5.5c0,2-0.3,3.8-1,5.5c-0.7,1.7-1.6,3.1-2.8,4.4
		c-1.2,1.2-2.6,2.2-4.3,2.9C345.9,65.9,344.1,66.2,342.2,66.2z M342.2,63.1c1.4,0,2.7-0.3,3.9-0.8c1.2-0.5,2.3-1.3,3.1-2.2
		c0.9-0.9,1.6-2,2.1-3.3c0.5-1.3,0.7-2.7,0.7-4.2c0-1.5-0.2-3-0.7-4.3c-0.5-1.3-1.2-2.4-2.1-3.4c-0.9-1-1.9-1.7-3.1-2.2
		c-1.2-0.5-2.5-0.8-3.9-0.8c-1.4,0-2.8,0.3-4,0.8c-1.2,0.5-2.3,1.3-3.1,2.2c-0.9,0.9-1.6,2-2.1,3.3c-0.5,1.3-0.7,2.7-0.7,4.2
		c0,1.5,0.2,3,0.7,4.3s1.2,2.4,2.1,3.4c0.9,1,1.9,1.7,3.1,2.2C339.4,62.8,340.7,63.1,342.2,63.1z"/>
	<path d="M380.4,61.5c-0.9,1.4-2.1,2.5-3.6,3.4c-1.5,0.9-3.3,1.3-5.3,1.3c-1.7,0-3.2-0.3-4.5-0.8c-1.3-0.6-2.4-1.3-3.2-2.3
		c-0.9-1-1.5-2.2-2-3.7c-0.4-1.4-0.7-3-0.7-4.7V40.8c0-0.7,0.1-1.1,0.4-1.4c0.3-0.2,0.7-0.4,1.2-0.4h0.4c0.5,0,0.9,0.1,1.2,0.4
		c0.3,0.2,0.4,0.7,0.4,1.4v13.6c0,2.6,0.6,4.7,1.9,6.2c1.3,1.5,3.1,2.2,5.4,2.2c1.9,0,3.6-0.5,5-1.5c1.4-1,2.5-2.4,3.3-4V40.8
		c0-0.7,0.1-1.1,0.4-1.4c0.3-0.2,0.7-0.4,1.2-0.4h0.4c0.5,0,0.9,0.1,1.2,0.4c0.3,0.2,0.4,0.7,0.4,1.4v24.6c0,0.1-0.1,0.2-0.4,0.2
		c-0.2,0.1-0.5,0.1-0.9,0.1c-0.6,0-1.2-0.2-1.7-0.7c-0.5-0.4-0.7-1.4-0.7-2.8V61.5z"/>
	<path d="M411.8,28.4c0-0.1,0.1-0.2,0.4-0.2c0.2-0.1,0.5-0.1,0.9-0.1c0.6,0,1.2,0.2,1.7,0.7c0.5,0.4,0.7,1.4,0.7,2.8v32.6
		c0,0.7-0.1,1.1-0.4,1.4c-0.3,0.2-0.7,0.4-1.2,0.4h-0.4c-0.5,0-0.9-0.1-1.1-0.4c-0.3-0.2-0.4-0.7-0.4-1.4v-2.9
		c-1.2,1.6-2.6,2.9-4.1,3.7c-1.6,0.9-3.5,1.3-5.7,1.3c-1.7,0-3.3-0.3-4.9-1c-1.5-0.6-2.8-1.6-3.9-2.8c-1.1-1.2-2-2.6-2.6-4.3
		c-0.6-1.7-1-3.6-1-5.7c0-2.1,0.3-3.9,0.9-5.7c0.6-1.7,1.5-3.2,2.6-4.4c1.1-1.2,2.5-2.2,4-2.8c1.5-0.7,3.2-1,5-1
		c2.4,0,4.3,0.5,6,1.4c1.6,0.9,2.8,2,3.6,3.2V28.4z M411.9,48c-0.8-1.9-2-3.4-3.6-4.5c-1.5-1.1-3.4-1.7-5.8-1.7
		c-1.4,0-2.7,0.3-3.8,0.8c-1.1,0.5-2.1,1.2-2.9,2.2c-0.8,0.9-1.4,2.1-1.9,3.4c-0.4,1.3-0.7,2.7-0.7,4.3c0,1.5,0.2,3,0.7,4.3
		c0.5,1.3,1.1,2.4,1.9,3.4c0.8,0.9,1.8,1.7,2.9,2.2c1.1,0.5,2.3,0.8,3.7,0.8c1.2,0,2.4-0.2,3.5-0.7c1.1-0.4,2.2-1.1,3-1.8
		c0.9-0.8,1.6-1.7,2.1-2.8c0.5-1.1,0.8-2.3,0.8-3.5V48z"/>
</g>
<rect x="0.7" y="76.5" fill="#FFDE00" width="69.8" height="3.3"/>
<rect x="70.5" y="76.5" fill="#E22778" width="69.1" height="3.3"/>
<rect x="139.6" y="76.5" fill="#18A3A4" width="69.2" height="3.3"/>
<rect x="208.9" y="76.5" fill="#0063A8" width="69.1" height="3.3"/>
<rect x="278" y="76.5" fill="#EC2224" width="69.1" height="3.3"/>
<rect x="346.8" y="76.5" fill="#049146" width="69.1" height="3.3"/>
<g>
	<path d="M416.5,17.8h-1.7v-0.9h4.6v0.9h-1.7v5.1h-1.1V17.8z"/>
	<path d="M425.1,20.4c0-0.8-0.1-1.7-0.1-2.5h0c-0.2,0.7-0.5,1.6-0.7,2.3l-0.9,2.6h-0.9l-0.8-2.6c-0.2-0.8-0.5-1.6-0.6-2.4h0
		c0,0.8-0.1,1.8-0.1,2.6l-0.1,2.4h-1l0.4-6.1h1.5l0.8,2.4c0.2,0.7,0.4,1.4,0.6,2.1h0c0.2-0.7,0.4-1.4,0.6-2.1l0.8-2.4h1.4l0.4,6.1
		h-1.1L425.1,20.4z"/>
</g>
</svg>
