<svg version="1.1" baseProfile="tiny" id="Capa_1" xmlns="http://www.w3.org/2000/svg" xmlns:xlink="http://www.w3.org/1999/xlink"
	 x="0px" y="0px" viewBox="-223 25 512 512" xml:space="preserve">
	<g>
		<g>
			<path fill="#689F38" d="M33,25c-141.4,0-256,114.6-256,256s114.6,256,256,256s256-114.6,256-256S174.4,25,33,25z M33,497
				c-119.3,0-216-96.7-216-216S-86.3,65,33,65s216,96.7,216,216S152.3,497,33,497z"/>
			<path fill="#689F38" d="M-47,353c0,13.3-10.8,24-24,24s-24-10.8-24-24s10.8-24,24-24S-47,339.8-47,353z"/>
			<path fill="#689F38" d="M161,305c0,13.3-10.8,24-24,24s-24-10.8-24-24s10.8-24,24-24S161,291.8,161,305z"/>
			<path fill="#689F38" d="M17,209c0,13.3-10.8,24-24,24s-24-10.8-24-24s10.8-24,24-24S17,195.8,17,209z"/>
			<g>
				<path fill="#689F38" d="M-15,248.2V409H1V248.2c-2.6,0.5-5.3,0.8-8,0.8S-12.4,248.7-15,248.2z"/>
				<path fill="#689F38" d="M1,169.8V153h-16v16.8c2.6-0.5,5.3-0.8,8-0.8S-1.6,169.3,1,169.8z"/>
			</g>
			<g>
				<path fill="#689F38" d="M129,344.2V409h16v-64.8c-2.6,0.5-5.3,0.8-8,0.8S131.6,344.7,129,344.2z"/>
				<path fill="#689F38" d="M145,265.8V153h-16v112.8c2.6-0.5,5.3-0.8,8-0.8S142.4,265.3,145,265.8z"/>
			</g>
			<g>
				<path fill="#689F38" d="M-79,392.2V409h16v-16.8c-2.6,0.5-5.3,0.8-8,0.8S-76.4,392.7-79,392.2z"/>
				<path fill="#689F38" d="M-63,313.8V153h-16v160.8c2.6-0.5,5.3-0.8,8-0.8S-65.6,313.3-63,313.8z"/>
			</g>
			<path fill="#689F38" d="M97,249c0,13.3-10.8,24-24,24s-24-10.7-24-24c0-13.3,10.8-24,24-24S97,235.8,97,249z"/>
			<g>
				<path fill="#689F38" d="M81,209.8V153H65v56.8c2.6-0.5,5.3-0.8,8-0.8S78.4,209.3,81,209.8z"/>
				<path fill="#689F38" d="M65,288.2V409h16V288.2c-2.6,0.5-5.3,0.8-8,0.8S67.6,288.7,65,288.2z"/>
			</g>
		</g>
	</g>
</svg>
